<mxfile host="app.diagrams.net" agent="Mozilla/5.0 (X11; Linux x86_64) AppleWebKit/537.36 (KHTML, like Gecko) Chrome/135.0.0.0 Safari/537.36" version="26.2.14">
  <diagram name="Page-1" id="ugDeNUn8-q2tB6P9qvU7">
    <mxGraphModel dx="983" dy="523" grid="1" gridSize="10" guides="1" tooltips="1" connect="1" arrows="1" fold="1" page="1" pageScale="1" pageWidth="827" pageHeight="1169" math="0" shadow="0">
      <root>
        <mxCell id="0" />
        <mxCell id="1" parent="0" />
        <mxCell id="Ia9p3ftofB72TrhNBuT_-9" style="edgeStyle=orthogonalEdgeStyle;rounded=0;orthogonalLoop=1;jettySize=auto;html=1;exitX=0.25;exitY=1;exitDx=0;exitDy=0;entryX=0.25;entryY=0;entryDx=0;entryDy=0;fontSize=11;" edge="1" parent="1" source="Ia9p3ftofB72TrhNBuT_-1" target="Ia9p3ftofB72TrhNBuT_-5">
          <mxGeometry relative="1" as="geometry" />
        </mxCell>
        <mxCell id="Ia9p3ftofB72TrhNBuT_-12" value="1" style="edgeLabel;html=1;align=center;verticalAlign=middle;resizable=0;points=[];fontSize=15;" vertex="1" connectable="0" parent="Ia9p3ftofB72TrhNBuT_-9">
          <mxGeometry y="2" relative="1" as="geometry">
            <mxPoint x="-2" y="-1" as="offset" />
          </mxGeometry>
        </mxCell>
        <mxCell id="Ia9p3ftofB72TrhNBuT_-1" value="Usuario&lt;div&gt;(Navegador)&lt;/div&gt;" style="rounded=0;whiteSpace=wrap;html=1;fillColor=#dae8fc;strokeColor=#6c8ebf;" vertex="1" parent="1">
          <mxGeometry x="354" y="60" width="120" height="60" as="geometry" />
        </mxCell>
        <mxCell id="Ia9p3ftofB72TrhNBuT_-10" style="edgeStyle=orthogonalEdgeStyle;rounded=0;orthogonalLoop=1;jettySize=auto;html=1;exitX=0.75;exitY=0;exitDx=0;exitDy=0;entryX=0.75;entryY=1;entryDx=0;entryDy=0;" edge="1" parent="1" source="Ia9p3ftofB72TrhNBuT_-5" target="Ia9p3ftofB72TrhNBuT_-1">
          <mxGeometry relative="1" as="geometry" />
        </mxCell>
        <mxCell id="Ia9p3ftofB72TrhNBuT_-28" value="&lt;font style=&quot;font-size: 15px;&quot;&gt;6&lt;/font&gt;" style="edgeLabel;html=1;align=center;verticalAlign=middle;resizable=0;points=[];" vertex="1" connectable="0" parent="Ia9p3ftofB72TrhNBuT_-10">
          <mxGeometry x="0.0333" relative="1" as="geometry">
            <mxPoint as="offset" />
          </mxGeometry>
        </mxCell>
        <mxCell id="Ia9p3ftofB72TrhNBuT_-14" style="edgeStyle=orthogonalEdgeStyle;rounded=0;orthogonalLoop=1;jettySize=auto;html=1;exitX=0;exitY=0.25;exitDx=0;exitDy=0;entryX=0.25;entryY=0;entryDx=0;entryDy=0;" edge="1" parent="1" source="Ia9p3ftofB72TrhNBuT_-5" target="Ia9p3ftofB72TrhNBuT_-6">
          <mxGeometry relative="1" as="geometry" />
        </mxCell>
        <mxCell id="Ia9p3ftofB72TrhNBuT_-29" value="&lt;font style=&quot;font-size: 15px;&quot;&gt;2&lt;/font&gt;" style="edgeLabel;html=1;align=center;verticalAlign=middle;resizable=0;points=[];" vertex="1" connectable="0" parent="Ia9p3ftofB72TrhNBuT_-14">
          <mxGeometry x="0.4253" y="-1" relative="1" as="geometry">
            <mxPoint as="offset" />
          </mxGeometry>
        </mxCell>
        <mxCell id="Ia9p3ftofB72TrhNBuT_-18" style="edgeStyle=orthogonalEdgeStyle;rounded=0;orthogonalLoop=1;jettySize=auto;html=1;exitX=1;exitY=0.75;exitDx=0;exitDy=0;entryX=0.25;entryY=0;entryDx=0;entryDy=0;" edge="1" parent="1" source="Ia9p3ftofB72TrhNBuT_-5" target="Ia9p3ftofB72TrhNBuT_-7">
          <mxGeometry relative="1" as="geometry" />
        </mxCell>
        <mxCell id="Ia9p3ftofB72TrhNBuT_-25" value="&lt;font style=&quot;font-size: 15px;&quot;&gt;4&lt;/font&gt;" style="edgeLabel;html=1;align=center;verticalAlign=middle;resizable=0;points=[];" vertex="1" connectable="0" parent="Ia9p3ftofB72TrhNBuT_-18">
          <mxGeometry x="0.0664" relative="1" as="geometry">
            <mxPoint y="24" as="offset" />
          </mxGeometry>
        </mxCell>
        <mxCell id="Ia9p3ftofB72TrhNBuT_-5" value="Controlador" style="rounded=0;whiteSpace=wrap;html=1;fillColor=#d5e8d4;strokeColor=#82b366;" vertex="1" parent="1">
          <mxGeometry x="354" y="180" width="120" height="60" as="geometry" />
        </mxCell>
        <mxCell id="Ia9p3ftofB72TrhNBuT_-16" style="edgeStyle=orthogonalEdgeStyle;rounded=0;orthogonalLoop=1;jettySize=auto;html=1;exitX=0.75;exitY=0;exitDx=0;exitDy=0;entryX=0;entryY=0.75;entryDx=0;entryDy=0;" edge="1" parent="1" source="Ia9p3ftofB72TrhNBuT_-6" target="Ia9p3ftofB72TrhNBuT_-5">
          <mxGeometry relative="1" as="geometry" />
        </mxCell>
        <mxCell id="Ia9p3ftofB72TrhNBuT_-30" value="&lt;font style=&quot;font-size: 15px;&quot;&gt;3&lt;/font&gt;" style="edgeLabel;html=1;align=center;verticalAlign=middle;resizable=0;points=[];" vertex="1" connectable="0" parent="Ia9p3ftofB72TrhNBuT_-16">
          <mxGeometry x="-0.3655" relative="1" as="geometry">
            <mxPoint as="offset" />
          </mxGeometry>
        </mxCell>
        <mxCell id="Ia9p3ftofB72TrhNBuT_-6" value="Modelo" style="rounded=0;whiteSpace=wrap;html=1;fillColor=#f8cecc;strokeColor=#b85450;" vertex="1" parent="1">
          <mxGeometry x="200" y="320" width="120" height="60" as="geometry" />
        </mxCell>
        <mxCell id="Ia9p3ftofB72TrhNBuT_-20" style="edgeStyle=orthogonalEdgeStyle;rounded=0;orthogonalLoop=1;jettySize=auto;html=1;exitX=0.75;exitY=0;exitDx=0;exitDy=0;entryX=1;entryY=0.25;entryDx=0;entryDy=0;" edge="1" parent="1" source="Ia9p3ftofB72TrhNBuT_-7" target="Ia9p3ftofB72TrhNBuT_-5">
          <mxGeometry relative="1" as="geometry" />
        </mxCell>
        <mxCell id="Ia9p3ftofB72TrhNBuT_-27" value="&lt;font style=&quot;font-size: 15px;&quot;&gt;5&lt;/font&gt;" style="edgeLabel;html=1;align=center;verticalAlign=middle;resizable=0;points=[];" vertex="1" connectable="0" parent="Ia9p3ftofB72TrhNBuT_-20">
          <mxGeometry x="-0.4529" relative="1" as="geometry">
            <mxPoint y="-2" as="offset" />
          </mxGeometry>
        </mxCell>
        <mxCell id="Ia9p3ftofB72TrhNBuT_-7" value="Vista" style="rounded=0;whiteSpace=wrap;html=1;fillColor=#e1d5e7;strokeColor=#9673a6;" vertex="1" parent="1">
          <mxGeometry x="520" y="320" width="120" height="60" as="geometry" />
        </mxCell>
        <mxCell id="Ia9p3ftofB72TrhNBuT_-11" value="El Usuario envía una petición al Controlador vía una URL (&lt;i&gt;endpoint&lt;/i&gt;)" style="text;html=1;align=center;verticalAlign=middle;whiteSpace=wrap;rounded=0;" vertex="1" parent="1">
          <mxGeometry x="252" y="130" width="120" height="40" as="geometry" />
        </mxCell>
        <mxCell id="Ia9p3ftofB72TrhNBuT_-15" value="&lt;span style=&quot;background-color: rgb(251, 251, 251);&quot;&gt;El Controlador solicita datos a un o varios Modelos (solicitud a la base de datos)&lt;/span&gt;" style="text;html=1;align=center;verticalAlign=middle;whiteSpace=wrap;rounded=0;" vertex="1" parent="1">
          <mxGeometry x="83" y="230" width="140" height="40" as="geometry" />
        </mxCell>
        <mxCell id="Ia9p3ftofB72TrhNBuT_-17" value="&lt;span style=&quot;background-color: rgb(251, 251, 251);&quot;&gt;El Modelo o Modelos devuelven los datos al Controlador&lt;/span&gt;" style="text;html=1;align=center;verticalAlign=middle;whiteSpace=wrap;rounded=0;" vertex="1" parent="1">
          <mxGeometry x="295" y="250" width="120" height="40" as="geometry" />
        </mxCell>
        <mxCell id="Ia9p3ftofB72TrhNBuT_-19" value="&lt;span style=&quot;background-color: rgb(251, 251, 251);&quot;&gt;El Controlador selecciona un vista para mostrar los datos&lt;/span&gt;" style="text;html=1;align=center;verticalAlign=middle;whiteSpace=wrap;rounded=0;" vertex="1" parent="1">
          <mxGeometry x="422" y="250" width="120" height="40" as="geometry" />
        </mxCell>
        <mxCell id="Ia9p3ftofB72TrhNBuT_-21" value="&lt;span style=&quot;background-color: rgb(251, 251, 251);&quot;&gt;Se devuelve la Vista seleccionada con los datos al Controlador&lt;/span&gt;" style="text;html=1;align=center;verticalAlign=middle;whiteSpace=wrap;rounded=0;" vertex="1" parent="1">
          <mxGeometry x="617" y="230" width="140" height="40" as="geometry" />
        </mxCell>
        <mxCell id="Ia9p3ftofB72TrhNBuT_-22" value="&lt;span style=&quot;background-color: rgb(251, 251, 251);&quot;&gt;El Controlador devuelve la Vista al Usuario con los datos&lt;/span&gt;" style="text;html=1;align=center;verticalAlign=middle;whiteSpace=wrap;rounded=0;" vertex="1" parent="1">
          <mxGeometry x="458" y="130" width="140" height="40" as="geometry" />
        </mxCell>
      </root>
    </mxGraphModel>
  </diagram>
</mxfile>
